<svg width="624" height="624" viewBox="0 0 624 624" fill="none" xmlns="http://www.w3.org/2000/svg">
<path d="M327.202 75L124 343.571L327.202 171.882L456.512 316.591L356.759 263.858L456.512 343.571L356.759 438L499 343.571L327.202 75Z" fill="#D9D9D9"/>
<path d="M218.075 391.38C212.555 391.38 207.457 390.383 202.78 388.39C198.18 386.32 194.155 383.598 190.705 380.225L196.455 373.555C199.292 376.392 202.588 378.692 206.345 380.455C210.178 382.142 214.242 382.985 218.535 382.985C223.748 382.985 227.773 381.873 230.61 379.65C233.523 377.427 234.98 374.552 234.98 371.025C234.98 368.342 234.367 366.195 233.14 364.585C231.99 362.975 230.38 361.633 228.31 360.56C226.317 359.487 224.017 358.413 221.41 357.34L210.6 352.625C208.07 351.552 205.54 350.21 203.01 348.6C200.557 346.99 198.487 344.958 196.8 342.505C195.113 339.975 194.27 336.87 194.27 333.19C194.27 329.357 195.305 325.945 197.375 322.955C199.522 319.888 202.473 317.512 206.23 315.825C209.987 314.062 214.242 313.18 218.995 313.18C223.748 313.18 228.118 314.062 232.105 315.825C236.092 317.512 239.465 319.735 242.225 322.495L237.165 328.705C234.712 326.482 231.99 324.757 229 323.53C226.01 322.227 222.56 321.575 218.65 321.575C214.28 321.575 210.753 322.572 208.07 324.565C205.387 326.482 204.045 329.165 204.045 332.615C204.045 334.992 204.697 336.947 206 338.48C207.38 340.013 209.105 341.278 211.175 342.275C213.245 343.272 215.353 344.23 217.5 345.15L228.08 349.75C231.223 350.977 234.06 352.472 236.59 354.235C239.12 355.922 241.113 358.03 242.57 360.56C244.027 363.09 244.755 366.195 244.755 369.875C244.755 373.862 243.682 377.503 241.535 380.8C239.388 384.02 236.322 386.588 232.335 388.505C228.348 390.422 223.595 391.38 218.075 391.38ZM292.32 391.38C287.643 391.38 283.312 390.498 279.325 388.735C275.338 386.972 271.85 384.442 268.86 381.145C265.87 377.772 263.532 373.67 261.845 368.84C260.235 363.933 259.43 358.413 259.43 352.28C259.43 344.23 260.887 337.292 263.8 331.465C266.713 325.562 270.7 321.038 275.76 317.895C280.82 314.752 286.647 313.18 293.24 313.18C297.763 313.18 301.788 314.138 305.315 316.055C308.842 317.895 311.678 320.003 313.825 322.38L308.42 328.475C306.503 326.328 304.28 324.642 301.75 323.415C299.22 322.188 296.383 321.575 293.24 321.575C288.41 321.575 284.193 322.84 280.59 325.37C277.063 327.823 274.303 331.312 272.31 335.835C270.317 340.358 269.32 345.763 269.32 352.05C269.32 358.413 270.317 363.895 272.31 368.495C274.303 373.095 277.063 376.66 280.59 379.19C284.193 381.72 288.41 382.985 293.24 382.985C296.69 382.985 299.795 382.257 302.555 380.8C305.315 379.343 307.883 377.273 310.26 374.59L315.665 380.455C312.752 383.905 309.378 386.588 305.545 388.505C301.712 390.422 297.303 391.38 292.32 391.38ZM350.58 390V322.61H325.74V314.56H385.08V322.61H360.24V390H350.58Z" fill="#977DCE"/>
<path d="M216.075 393.38C210.555 393.38 205.457 392.383 200.78 390.39C196.18 388.32 192.155 385.598 188.705 382.225L194.455 375.555C197.292 378.392 200.588 380.692 204.345 382.455C208.178 384.142 212.242 384.985 216.535 384.985C221.748 384.985 225.773 383.873 228.61 381.65C231.523 379.427 232.98 376.552 232.98 373.025C232.98 370.342 232.367 368.195 231.14 366.585C229.99 364.975 228.38 363.633 226.31 362.56C224.317 361.487 222.017 360.413 219.41 359.34L208.6 354.625C206.07 353.552 203.54 352.21 201.01 350.6C198.557 348.99 196.487 346.958 194.8 344.505C193.113 341.975 192.27 338.87 192.27 335.19C192.27 331.357 193.305 327.945 195.375 324.955C197.522 321.888 200.473 319.512 204.23 317.825C207.987 316.062 212.242 315.18 216.995 315.18C221.748 315.18 226.118 316.062 230.105 317.825C234.092 319.512 237.465 321.735 240.225 324.495L235.165 330.705C232.712 328.482 229.99 326.757 227 325.53C224.01 324.227 220.56 323.575 216.65 323.575C212.28 323.575 208.753 324.572 206.07 326.565C203.387 328.482 202.045 331.165 202.045 334.615C202.045 336.992 202.697 338.947 204 340.48C205.38 342.013 207.105 343.278 209.175 344.275C211.245 345.272 213.353 346.23 215.5 347.15L226.08 351.75C229.223 352.977 232.06 354.472 234.59 356.235C237.12 357.922 239.113 360.03 240.57 362.56C242.027 365.09 242.755 368.195 242.755 371.875C242.755 375.862 241.682 379.503 239.535 382.8C237.388 386.02 234.322 388.588 230.335 390.505C226.348 392.422 221.595 393.38 216.075 393.38ZM290.32 393.38C285.643 393.38 281.312 392.498 277.325 390.735C273.338 388.972 269.85 386.442 266.86 383.145C263.87 379.772 261.532 375.67 259.845 370.84C258.235 365.933 257.43 360.413 257.43 354.28C257.43 346.23 258.887 339.292 261.8 333.465C264.713 327.562 268.7 323.038 273.76 319.895C278.82 316.752 284.647 315.18 291.24 315.18C295.763 315.18 299.788 316.138 303.315 318.055C306.842 319.895 309.678 322.003 311.825 324.38L306.42 330.475C304.503 328.328 302.28 326.642 299.75 325.415C297.22 324.188 294.383 323.575 291.24 323.575C286.41 323.575 282.193 324.84 278.59 327.37C275.063 329.823 272.303 333.312 270.31 337.835C268.317 342.358 267.32 347.763 267.32 354.05C267.32 360.413 268.317 365.895 270.31 370.495C272.303 375.095 275.063 378.66 278.59 381.19C282.193 383.72 286.41 384.985 291.24 384.985C294.69 384.985 297.795 384.257 300.555 382.8C303.315 381.343 305.883 379.273 308.26 376.59L313.665 382.455C310.752 385.905 307.378 388.588 303.545 390.505C299.712 392.422 295.303 393.38 290.32 393.38ZM348.58 392V324.61H323.74V316.56H383.08V324.61H358.24V392H348.58Z" fill="#818181"/>
</svg>
