<svg width="375" height="363" viewBox="0 0 375 363" fill="none" xmlns="http://www.w3.org/2000/svg">
<g clip-path="url(#clip0_1_2)">
<path d="M203.202 0L0 268.571L203.202 96.8818L332.512 241.591L232.759 188.858L332.512 268.571L232.759 363L375 268.571L203.202 0Z" fill="#D9D9D9"/>
<path d="M94.075 316.38C88.555 316.38 83.4567 315.383 78.78 313.39C74.18 311.32 70.155 308.598 66.705 305.225L72.455 298.555C75.2917 301.392 78.5883 303.692 82.345 305.455C86.1783 307.142 90.2417 307.985 94.535 307.985C99.7483 307.985 103.773 306.873 106.61 304.65C109.523 302.427 110.98 299.552 110.98 296.025C110.98 293.342 110.367 291.195 109.14 289.585C107.99 287.975 106.38 286.633 104.31 285.56C102.317 284.487 100.017 283.413 97.41 282.34L86.6 277.625C84.07 276.552 81.54 275.21 79.01 273.6C76.5567 271.99 74.4867 269.958 72.8 267.505C71.1133 264.975 70.27 261.87 70.27 258.19C70.27 254.357 71.305 250.945 73.375 247.955C75.5217 244.888 78.4733 242.512 82.23 240.825C85.9867 239.062 90.2417 238.18 94.995 238.18C99.7483 238.18 104.118 239.062 108.105 240.825C112.092 242.512 115.465 244.735 118.225 247.495L113.165 253.705C110.712 251.482 107.99 249.757 105 248.53C102.01 247.227 98.56 246.575 94.65 246.575C90.28 246.575 86.7533 247.572 84.07 249.565C81.3867 251.482 80.045 254.165 80.045 257.615C80.045 259.992 80.6967 261.947 82 263.48C83.38 265.013 85.105 266.278 87.175 267.275C89.245 268.272 91.3533 269.23 93.5 270.15L104.08 274.75C107.223 275.977 110.06 277.472 112.59 279.235C115.12 280.922 117.113 283.03 118.57 285.56C120.027 288.09 120.755 291.195 120.755 294.875C120.755 298.862 119.682 302.503 117.535 305.8C115.388 309.02 112.322 311.588 108.335 313.505C104.348 315.422 99.595 316.38 94.075 316.38ZM168.32 316.38C163.643 316.38 159.312 315.498 155.325 313.735C151.338 311.972 147.85 309.442 144.86 306.145C141.87 302.772 139.532 298.67 137.845 293.84C136.235 288.933 135.43 283.413 135.43 277.28C135.43 269.23 136.887 262.292 139.8 256.465C142.713 250.562 146.7 246.038 151.76 242.895C156.82 239.752 162.647 238.18 169.24 238.18C173.763 238.18 177.788 239.138 181.315 241.055C184.842 242.895 187.678 245.003 189.825 247.38L184.42 253.475C182.503 251.328 180.28 249.642 177.75 248.415C175.22 247.188 172.383 246.575 169.24 246.575C164.41 246.575 160.193 247.84 156.59 250.37C153.063 252.823 150.303 256.312 148.31 260.835C146.317 265.358 145.32 270.763 145.32 277.05C145.32 283.413 146.317 288.895 148.31 293.495C150.303 298.095 153.063 301.66 156.59 304.19C160.193 306.72 164.41 307.985 169.24 307.985C172.69 307.985 175.795 307.257 178.555 305.8C181.315 304.343 183.883 302.273 186.26 299.59L191.665 305.455C188.752 308.905 185.378 311.588 181.545 313.505C177.712 315.422 173.303 316.38 168.32 316.38ZM226.58 315V247.61H201.74V239.56H261.08V247.61H236.24V315H226.58Z" fill="#977DCE"/>
<path d="M92.075 318.38C86.555 318.38 81.4567 317.383 76.78 315.39C72.18 313.32 68.155 310.598 64.705 307.225L70.455 300.555C73.2917 303.392 76.5883 305.692 80.345 307.455C84.1783 309.142 88.2417 309.985 92.535 309.985C97.7483 309.985 101.773 308.873 104.61 306.65C107.523 304.427 108.98 301.552 108.98 298.025C108.98 295.342 108.367 293.195 107.14 291.585C105.99 289.975 104.38 288.633 102.31 287.56C100.317 286.487 98.0167 285.413 95.41 284.34L84.6 279.625C82.07 278.552 79.54 277.21 77.01 275.6C74.5567 273.99 72.4867 271.958 70.8 269.505C69.1133 266.975 68.27 263.87 68.27 260.19C68.27 256.357 69.305 252.945 71.375 249.955C73.5217 246.888 76.4733 244.512 80.23 242.825C83.9867 241.062 88.2417 240.18 92.995 240.18C97.7483 240.18 102.118 241.062 106.105 242.825C110.092 244.512 113.465 246.735 116.225 249.495L111.165 255.705C108.712 253.482 105.99 251.757 103 250.53C100.01 249.227 96.56 248.575 92.65 248.575C88.28 248.575 84.7533 249.572 82.07 251.565C79.3867 253.482 78.045 256.165 78.045 259.615C78.045 261.992 78.6967 263.947 80 265.48C81.38 267.013 83.105 268.278 85.175 269.275C87.245 270.272 89.3533 271.23 91.5 272.15L102.08 276.75C105.223 277.977 108.06 279.472 110.59 281.235C113.12 282.922 115.113 285.03 116.57 287.56C118.027 290.09 118.755 293.195 118.755 296.875C118.755 300.862 117.682 304.503 115.535 307.8C113.388 311.02 110.322 313.588 106.335 315.505C102.348 317.422 97.595 318.38 92.075 318.38ZM166.32 318.38C161.643 318.38 157.312 317.498 153.325 315.735C149.338 313.972 145.85 311.442 142.86 308.145C139.87 304.772 137.532 300.67 135.845 295.84C134.235 290.933 133.43 285.413 133.43 279.28C133.43 271.23 134.887 264.292 137.8 258.465C140.713 252.562 144.7 248.038 149.76 244.895C154.82 241.752 160.647 240.18 167.24 240.18C171.763 240.18 175.788 241.138 179.315 243.055C182.842 244.895 185.678 247.003 187.825 249.38L182.42 255.475C180.503 253.328 178.28 251.642 175.75 250.415C173.22 249.188 170.383 248.575 167.24 248.575C162.41 248.575 158.193 249.84 154.59 252.37C151.063 254.823 148.303 258.312 146.31 262.835C144.317 267.358 143.32 272.763 143.32 279.05C143.32 285.413 144.317 290.895 146.31 295.495C148.303 300.095 151.063 303.66 154.59 306.19C158.193 308.72 162.41 309.985 167.24 309.985C170.69 309.985 173.795 309.257 176.555 307.8C179.315 306.343 181.883 304.273 184.26 301.59L189.665 307.455C186.752 310.905 183.378 313.588 179.545 315.505C175.712 317.422 171.303 318.38 166.32 318.38ZM224.58 317V249.61H199.74V241.56H259.08V249.61H234.24V317H224.58Z" fill="#818181"/>
</g>
<defs>
<clipPath id="clip0_1_2">
<rect width="375" height="363" fill="white"/>
</clipPath>
</defs>
</svg>
